# xmcd
#
# Track frame offsets:
#	182
#	14932
#	29692
#	45725
#	54565
#	61280
#	70387
#	90717
#	100507
#	139705
#	156365
#	178815
#	194315
#
# Disc length: 2831 seconds
#
# Revision: 5
# Processed by: cddbd v1.5.2PL0 Copyright (c) Steve Scherf et al.
# Submitted via: audiograbber 1.83.01
#
DISCID=bd0b0d0d
DTITLE=Queen - Live Killers Disc 1
DYEAR=1979
DGENRE=Hard Rock
TTITLE0=We Will Rock You
TTITLE1=Let Me Entertain You
TTITLE2=Death On Two Legs
TTITLE3=Killer Queen
TTITLE4=Bicycle Race
TTITLE5=I'm In Love With My Car
TTITLE6=Get Down, Make Love
TTITLE7=You're My Best Friend
TTITLE8=Now I'm Here
TTITLE9=Dreamer's Ball
TTITLE10=Love Of My Life
TTITLE11='39
TTITLE12=Keep Yourself Alive
EXTD=Hollywood Records HR-61066-2\n1979/1991 Queen Productions, Ltd.
EXTT0=
EXTT1=
EXTT2=
EXTT3=
EXTT4=
EXTT5=
EXTT6=
EXTT7=
EXTT8=
EXTT9=
EXTT10=
EXTT11=
EXTT12=
PLAYORDER=
